HIERARCHY
ROOT Hips
{
  OFFSET -33.9132 29.2015 117.021
  CHANNELS 6 Xposition Yposition Zposition Zrotation Xrotation Yrotation
  JOINT LeftUpLeg
  {
    OFFSET 8.64259 1.95398 -2.38835
    CHANNELS 3 Zrotation Xrotation Yrotation
    JOINT LeftLeg
    {
      OFFSET 43.7702 0 0
      CHANNELS 3 Zrotation Xrotation Yrotation
      JOINT LeftFoot
      {
        OFFSET 40.6238 0 0
        CHANNELS 3 Zrotation Xrotation Yrotation
        JOINT LeftToeBase
        {
          OFFSET 12.7242 0 0
          CHANNELS 3 Zrotation Xrotation Yrotation
          End Site
          {
            OFFSET 0 0 0
          }
        }
      }
    }
  }
  JOINT RightUpLeg
  {
    OFFSET -8.2249 1.95398 -2.59336
    CHANNELS 3 Zrotation Xrotation Yrotation
    JOINT RightLeg
    {
      OFFSET 43.5653 0 0
      CHANNELS 3 Zrotation Xrotation Yrotation
      JOINT RightFoot
      {
        OFFSET 40.6238 0 0
        CHANNELS 3 Zrotation Xrotation Yrotation
        JOINT RightToeBase
        {
          OFFSET 12.7242 0 0
          CHANNELS 3 Zrotation Xrotation Yrotation
          End Site
          {
            OFFSET 0 0 0
          }
        }
      }
    }
  }
  JOINT Spine
  {
    OFFSET 0.165834 0.87714 6.61349
    CHANNELS 3 Zrotation Xrotation Yrotation
    JOINT Spine1
    {
      OFFSET 7.38963 1.71661e-005 0
      CHANNELS 3 Zrotation Xrotation Yrotation
      JOINT Spine2
      {
        OFFSET 11.9445 1.14441e-005 0
        CHANNELS 3 Zrotation Xrotation Yrotation
        JOINT Spine3
        {
          OFFSET 14.7254 4.19617e-005 0
          CHANNELS 3 Zrotation Xrotation Yrotation
          JOINT Spine4
          {
            OFFSET 10.9679 0 0
            CHANNELS 3 Zrotation Xrotation Yrotation
            JOINT RightShoulder
            {
              OFFSET 2.46616 -1.6653 3.69651
              CHANNELS 3 Zrotation Xrotation Yrotation
              JOINT RightArm
              {
                OFFSET 13.0012 0 0
                CHANNELS 3 Zrotation Xrotation Yrotation
                JOINT RightForeArm
                {
                  OFFSET 28.7848 1.62311e-005 0
                  CHANNELS 3 Zrotation Xrotation Yrotation
                  JOINT RightHand
                  {
                    OFFSET 26.5688 1.62095e-005 0
                    CHANNELS 3 Zrotation Xrotation Yrotation
                    End Site
                    {
                      OFFSET 0 0 0
                    }
                  }
                }
              }
            }
            JOINT LeftShoulder
            {
              OFFSET 2.38034 -1.29275 -3.7523
              CHANNELS 3 Zrotation Xrotation Yrotation
              JOINT LeftArm
              {
                OFFSET 16.3182 6.07031e-005 0
                CHANNELS 3 Zrotation Xrotation Yrotation
                JOINT LeftForeArm
                {
                  OFFSET 27.0901 0 0
                  CHANNELS 3 Zrotation Xrotation Yrotation
                  JOINT LeftHand
                  {
                    OFFSET 24.5451 1.51738e-005 0
                    CHANNELS 3 Zrotation Xrotation Yrotation
                    End Site
                    {
                      OFFSET 0 0 0
                    }
                  }
                }
              }
            }
            JOINT Neck
            {
              OFFSET 5.0226 -0.0266342 0
              CHANNELS 3 Zrotation Xrotation Yrotation
              JOINT Head
              {
                OFFSET 6.69364 2.86102e-005 0
                CHANNELS 3 Zrotation Xrotation Yrotation
                End Site
                {
                  OFFSET 0 0 0
                }
              }
            }
          }
        }
      }
    }
  }
}
MOTION
Frames:	6
Frame Time:	0.0416667
-203.384 94.0845 187.094 -96.7465 -43.2218 -95.3702 -176.354 23.6629 89.3152 -19.602 9.94861 -1.25119 65.2754 3.47915 0.391909 8.41021 -15.8317 8.18384 175.399 -3.81662 90.5302 -31.6321 -19.3041 -3.31528 80.5075 -15.5484 -3.04458 31.9327 -2.33246 4.26452 1.20082 7.59749 -90.1411 11.6863 2.32231 -0.524194 0.0172897 2.297 -0.62595 -22.5345 2.37241 0.198386 -2.52189 2.37243 0.198388 93.1376 -22.4914 -102.959 45.6604 4.35308 -13.2041 -5.32987 -42.445 -5.4677 -19.6614 2.69066 -21.1926 -86.476 -55.9943 84.895 -11.047 -13.9064 0.632287 -9.02446 13.6796 -4.50339 4.40489 -0.902356 -19.0855 -0.745251 -1.07821 5.0807 -13.3802 -0.884382 -9.33185 
-199.466 95.6617 181.31 -99.7146 -48.5469 -98.9411 -174.135 24.3878 87.2924 -31.7883 -0.167326 -2.18923 67.1975 4.64242 -0.339842 7.72692 -15.4323 7.02093 174.731 -1.05621 91.011 -30.6932 -15.9983 -1.98025 77.0952 -12.4912 -3.04171 29.021 -1.10535 4.12196 0.274236 7.89461 -90.3146 11.0857 0.40001 -0.664108 -0.58533 0.370399 -0.681084 -23.1202 0.581103 -0.513183 -3.10751 0.581107 -0.51319 93.1309 -23.3498 -102.659 45.0092 5.94486 -8.61413 -4.95775 -36.616 -5.26225 -21.9537 2.82322 -20.1409 -87.978 -50.6494 81.8786 -13.9349 -11.6331 -10.2545 -8.85634 21.8998 -3.81449 10.2996 -2.3172 -23.8018 -3.1852 0.543015 2.32716 -11.3681 0.343247 -0.962451 
-196.291 96.7388 177.054 -100.592 -50.6012 -100.074 -173.087 23.6431 88.0287 -51.9926 7.13896 -0.691129 66.0504 3.94841 1.44012 4.78071 -16.8906 6.40521 174.345 0.961715 91.0748 -28.5428 -15.7787 -1.19827 73.7219 -9.58456 -2.56638 27.1011 -0.439964 4.62797 -0.258951 7.89699 -90.5386 11.0754 -0.765291 -0.996497 -0.595676 -0.808385 -0.961858 -23.1288 -0.430433 -1.1804 -3.11613 -0.430428 -1.1804 93.5726 -24.7564 -101.198 44.601 7.68452 -2.64703 -4.74411 -32.8474 -5.16126 -19.6995 2.09329 -17.5647 -87.4562 -45.9678 81.8152 -17.0416 -10.8149 -21.3532 -8.47309 25.2477 -3.82243 11.0168 -3.084 -28.4022 -5.43064 1.79391 1.53256 -12.5501 1.42742 2.61272 
-193.338 96.8851 173.783 -101.067 -49.6038 -99.6362 -173.004 15.4533 90.3097 -60.9924 10.4695 1.31811 62.7846 1.82869 1.8417 6.08383 -14.88 4.84366 174.736 3.94334 91.2231 -28.7782 -16.7297 -0.92846 71.9082 -8.19265 -2.52219 25.3245 0.184495 5.03824 -0.453682 7.86615 -90.7785 11.132 -1.26449 -1.42744 -0.539015 -1.32611 -1.37042 -23.0702 -0.777115 -1.7414 -3.05757 -0.777116 -1.74141 94.6556 -25.3883 -98.6379 46.5947 8.36505 2.7995 -4.57538 -29.6434 -5.09033 -18.0035 1.35363 -14.128 -87.593 -43.9065 81.2023 -21.4544 -12.9159 -29.5262 -7.99376 25.6073 -2.30279 13.0945 -3.96057 -30.7381 -6.74318 2.82433 1.62867 -13.0809 2.28843 4.52795 
-190.321 96.6774 170.939 -101.66 -46.9953 -99.0687 -172.723 2.2499 93.2723 -56.1036 17.5428 2.32358 60.69 0.465579 -0.320276 9.68292 -12.602 4.76171 175.127 6.92346 91.7439 -30.4672 -19.2607 -0.872425 70.2511 -6.77078 -2.20423 23.8649 0.681313 5.39687 -0.837942 7.73305 -90.9298 11.3908 -2.10107 -1.64034 -0.279371 -2.17124 -1.54627 -22.8142 -1.51107 -2.19586 -2.80154 -1.51109 -2.19587 93.4573 -25.5744 -101.18 48.3427 9.21403 7.97453 -4.65509 -31.1801 -5.12266 -16.4485 0.867605 -11.522 -86.9868 -44.0274 82.2024 -26.7598 -15.4045 -28.8176 -6.18449 24.7466 -3.07795 14.0678 -4.10665 -30.0625 -9.00346 4.91973 4.39896 -13.2721 4.27872 4.33306 
-186.351 95.9264 167.316 -101.004 -45.3464 -98.555 -171.431 -7.37132 94.8081 -45.1847 21.992 1.72441 65.7722 3.9624 -0.788021 15.487 -10.0286 6.16282 176.535 12.4425 92.1278 -33.6189 -20.5519 -1.79388 68.0388 -5.27077 -2.37683 23.5757 0.900776 5.05395 -1.16321 7.64836 -90.9569 11.5566 -2.76187 -1.62294 -0.112319 -2.83062 -1.49976 -22.6549 -2.14655 -2.37798 -2.64222 -2.14654 -2.37798 94.1273 -25.6805 -99.6987 50.0668 8.73048 8.01718 -4.66181 -31.3076 -5.12549 -14.0491 1.176 -15.2669 -87.5998 -45.9437 81.587 -25.3285 -13.9582 -25.1586 -6.78281 19.6265 -4.69962 8.7821 -3.01231 -32.5746 -9.42801 6.48148 6.03552 -13.8539 5.66364 5.26061 
